HIERARCHY
ROOT Hips
{
	OFFSET 0.000000 0.000000 0.000000 
	CHANNELS 6 Xposition Yposition Zposition Xrotation Yrotation Zrotation
	JOINT Spine
	{
		OFFSET 0.000000 1.152660 1.729000 
		CHANNELS 3 Xrotation Yrotation Zrotation
		JOINT Spine1
		{
			OFFSET 0.000000 0.400320 2.270310 
			CHANNELS 3 Xrotation Yrotation Zrotation
			JOINT Spine2
			{
				OFFSET 0.000000 0.200920 2.296560 
				CHANNELS 3 Xrotation Yrotation Zrotation
				JOINT Spine3
				{
					OFFSET 0.000000 0.000000 2.305330 
					CHANNELS 3 Xrotation Yrotation Zrotation
					JOINT Neck
					{
						OFFSET 0.000000 -0.864490 6.051490 
						CHANNELS 3 Xrotation Yrotation Zrotation
						JOINT Head
						{
							OFFSET 0.000000 -0.550430 3.121670 
							CHANNELS 3 Xrotation Yrotation Zrotation
							End Site
							{
								OFFSET 0.000000 0.000000 3.731750 
							}
						}
					}
					JOINT RightShoulder
					{
						OFFSET -0.788280 -1.313800 4.256720 
						CHANNELS 3 Xrotation Yrotation Zrotation
						JOINT RightArm
						{
							OFFSET -3.915130 0.000000 0.000000 
							CHANNELS 3 Xrotation Yrotation Zrotation
							JOINT RightForeArm
							{
								OFFSET -6.914910 0.000000 0.000000 
								CHANNELS 3 Xrotation Yrotation Zrotation
								JOINT RightHand
								{
									OFFSET -6.096220 0.000000 0.000000 
									CHANNELS 3 Xrotation Yrotation Zrotation
									JOINT RightHandEnd
									{
										OFFSET -1.749950 0.000000 0.000000 
										CHANNELS 3 Xrotation Yrotation Zrotation
										End Site
										{
											OFFSET -1.749950 0.000000 0.000000 
										}
									}
									JOINT RightHandThumb1
									{
										OFFSET -0.699980 -1.166630 -0.466650 
										CHANNELS 3 Yrotation Xrotation Zrotation
										End Site
										{
											OFFSET -1.690320 -0.452920 0.000000 
										}
									}
								}
							}
						}
					}
					JOINT LeftShoulder
					{
						OFFSET 0.788280 -1.313800 4.256720 
						CHANNELS 3 Xrotation Yrotation Zrotation
						JOINT LeftArm
						{
							OFFSET 3.915130 0.000000 0.000000 
							CHANNELS 3 Xrotation Yrotation Zrotation
							JOINT LeftForeArm
							{
								OFFSET 6.914910 0.000000 0.000000 
								CHANNELS 3 Xrotation Yrotation Zrotation
								JOINT LeftHand
								{
									OFFSET 6.096220 0.000000 0.000000 
									CHANNELS 3 Xrotation Yrotation Zrotation
									JOINT LeftHandEnd
									{
										OFFSET 1.749950 0.000000 0.000000 
										CHANNELS 3 Xrotation Yrotation Zrotation
										End Site
										{
											OFFSET 1.749950 0.000000 0.000000 
										}
									}
									JOINT LeftHandThumb1
									{
										OFFSET 0.699980 -1.166630 -0.466650 
										CHANNELS 3 Yrotation Xrotation Zrotation
										End Site
										{
											OFFSET 1.690320 -0.452920 0.000000 
										}
									}
								}
							}
						}
					}
				}
			}
		}
	}
	JOINT RightUpLeg
	{
		OFFSET -2.338570 0.000000 -0.683180 
		CHANNELS 3 Xrotation Yrotation Zrotation
		JOINT RightLeg
		{
			OFFSET 0.000000 0.000000 -10.744960 
			CHANNELS 3 Xrotation Yrotation Zrotation
			JOINT RightFoot
			{
				OFFSET 0.000000 0.000000 -10.930850 
				CHANNELS 3 Xrotation Yrotation Zrotation
				JOINT RightToeBase
				{
					OFFSET 0.000000 -4.087270 -1.487650 
					CHANNELS 3 Xrotation Yrotation Zrotation
					End Site
					{
						OFFSET 0.000000 -1.891870 -0.000000 
					}
				}
			}
		}
	}
	JOINT LeftUpLeg
	{
		OFFSET 2.338570 0.000000 -0.683180 
		CHANNELS 3 Xrotation Yrotation Zrotation
		JOINT LeftLeg
		{
			OFFSET 0.000000 0.000000 -10.744960 
			CHANNELS 3 Xrotation Yrotation Zrotation
			JOINT LeftFoot
			{
				OFFSET 0.000000 0.000000 -10.930850 
				CHANNELS 3 Xrotation Yrotation Zrotation
				JOINT LeftToeBase
				{
					OFFSET 0.000000 -4.087270 -1.487650 
					CHANNELS 3 Xrotation Yrotation Zrotation
					End Site
					{
						OFFSET 0.000000 -1.891870 -0.000000 
					}
				}
			}
		}
	}
}
MOTION
Frames: 8
Frame Time: 0.033470
-2.666700 -46.145901 24.859100 -3.389400 -0.757700 172.981705 3.056400 -1.334300 -0.015600 1.395600 -2.303200 -0.110200 3.776100 2.811400 6.246300 -1.702200 2.776800 0.132900 -4.292600 3.491200 -11.437300 8.978900 -6.456600 -17.458099 -4.716600 -5.814200 1.100200 -7.107200 -4.708000 -5.043700 0.000000 0.000000 16.029900 -1.580500 6.208500 -1.124800 -0.000000 0.000000 0.000000 0.000000 -0.000000 -0.000000 -7.553100 8.012000 3.945500 10.247600 2.534500 -6.958700 -0.000000 -0.000000 -3.518000 8.249100 -1.408300 5.367700 -0.000000 -0.000000 -0.000000 -0.000000 -0.000000 0.000000 -4.752700 -2.470200 1.208200 7.416300 0.000000 0.000000 -5.436900 -0.599100 5.296700 7.064600 0.000000 0.000000 -6.315400 -3.360400 8.696600 10.290300 0.000000 0.000000 -9.558900 0.151600 1.403200 -1.016600 0.000000 -0.000000 
-2.672800 -46.144402 24.862400 -3.410100 -0.855800 172.976898 3.058000 -1.379000 -0.012300 1.392700 -2.318400 -0.112100 3.777500 2.851800 6.264700 -1.696800 2.766600 0.137000 -4.265800 3.469200 -11.465700 8.951900 -6.449300 -17.495100 -4.729800 -5.867300 1.071300 -7.022700 -4.674400 -5.016600 0.000000 0.000000 16.018801 -1.358900 6.259000 -1.091800 -0.000000 0.000000 0.000000 -0.000000 -0.000000 0.000000 -7.572800 8.044000 3.959800 10.192700 2.489200 -6.966900 -0.000000 -0.000000 -3.464800 8.268200 -1.441200 5.260300 -0.000000 0.000000 -0.000000 0.000000 -0.000000 -0.000000 -4.774300 -2.568200 1.168700 7.320800 0.000000 0.000000 -5.341600 -1.034000 5.124600 7.079600 0.000000 0.000000 -6.331000 -3.459200 8.811600 10.317900 0.000000 0.000000 -9.576100 0.179300 1.291700 -1.050300 0.000000 -0.000000 
-2.681700 -46.141899 24.866600 -3.446200 -0.990200 172.965195 3.058000 -1.431800 -0.007600 1.395100 -2.326200 -0.108100 3.774500 2.911400 6.293900 -1.695100 2.757400 0.143100 -4.236100 3.446400 -11.506100 8.942800 -6.449000 -17.538099 -4.755500 -5.950900 1.030500 -6.912300 -4.638900 -4.994700 0.000000 0.000000 16.010099 -1.087700 6.312300 -1.061900 0.000000 -0.000000 0.000000 -0.000000 -0.000000 0.000000 -7.623000 8.086500 3.980200 10.123600 2.404800 -6.972800 -0.000000 -0.000000 -3.417900 8.277400 -1.533200 5.096800 0.000000 0.000000 -0.000000 -0.000000 -0.000000 0.000000 -4.779200 -2.723500 0.988600 7.043900 0.000000 0.000000 -5.082500 -1.364800 4.842100 6.965000 0.000000 0.000000 -6.334700 -3.578900 8.831900 10.309900 0.000000 0.000000 -9.587200 0.266800 1.289200 -1.170000 0.000000 -0.000000 
-2.690600 -46.138500 24.869900 -3.465100 -1.098900 172.938995 3.078400 -1.458600 -0.001000 1.403900 -2.338600 -0.100300 3.770500 2.995400 6.323300 -1.700900 2.754300 0.149400 -4.230100 3.441100 -11.524700 8.970100 -6.464400 -17.548201 -4.777800 -6.025900 0.994100 -6.847800 -4.627500 -4.999300 0.000000 0.000000 16.039200 -0.885200 6.325300 -1.041600 0.000000 -0.000000 -0.000000 -0.000000 -0.000000 0.000000 -7.689300 8.095800 3.990500 10.041200 2.346600 -6.939700 -0.000000 -0.000000 -3.444700 8.254400 -1.651800 4.981400 -0.000000 0.000000 -0.000000 -0.000000 -0.000000 0.000000 -4.740900 -2.875500 0.733200 6.651900 0.000000 0.000000 -4.713000 -1.308300 4.514000 6.698500 0.000000 0.000000 -6.304700 -3.661200 8.779300 10.270700 0.000000 0.000000 -9.591700 0.337500 1.376200 -1.288900 0.000000 -0.000000 
-2.699000 -46.135300 24.871901 -3.468500 -1.163600 172.895905 3.108300 -1.457100 0.010000 1.416200 -2.349100 -0.096100 3.775700 3.080800 6.357900 -1.702300 2.760800 0.145800 -4.248100 3.451500 -11.512000 8.986200 -6.491600 -17.528700 -4.773500 -6.072000 0.975900 -6.841800 -4.636900 -5.023000 0.000000 0.000000 16.103201 -0.761500 6.331300 -1.036300 0.000000 -0.000000 -0.000000 -0.000000 -0.000000 0.000000 -7.732000 8.067700 3.989400 9.944300 2.350000 -6.890100 -0.000000 -0.000000 -3.500400 8.160200 -1.754000 4.931200 -0.000000 0.000000 -0.000000 0.000000 0.000000 0.000000 -4.701100 -2.993400 0.500900 6.277200 0.000000 0.000000 -4.338500 -0.983500 4.185700 6.357400 0.000000 0.000000 -6.274200 -3.703800 8.782800 10.250500 0.000000 0.000000 -9.599800 0.331300 1.415700 -1.332400 0.000000 -0.000000 
-2.707600 -46.132301 24.874100 -3.478500 -1.231500 172.848999 3.128800 -1.463800 0.019500 1.415500 -2.364900 -0.091500 3.810000 3.168800 6.388600 -1.692400 2.768400 0.138400 -4.269300 3.464400 -11.499300 8.940500 -6.520100 -17.523300 -4.750000 -6.097600 0.979300 -6.846800 -4.655700 -5.049300 0.000000 0.000000 16.162600 -0.686000 6.376000 -1.059600 0.000000 -0.000000 -0.000000 0.000000 -0.000000 0.000000 -7.734400 8.047700 3.993500 9.821800 2.377500 -6.881800 -0.000000 -0.000000 -3.496500 7.995800 -1.836000 4.898600 0.000000 -0.000000 0.000000 0.000000 0.000000 0.000000 -4.685800 -3.115900 0.287700 5.931800 0.000000 0.000000 -3.980500 -0.698500 3.858500 6.033300 0.000000 0.000000 -6.270400 -3.759900 8.860200 10.267500 0.000000 0.000000 -9.620900 0.290100 1.374200 -1.325400 0.000000 -0.000000 
-2.717000 -46.127701 24.877199 -3.498100 -1.319800 172.804993 3.138300 -1.492500 0.029000 1.406300 -2.388700 -0.087500 3.859500 3.259500 6.412400 -1.676100 2.780100 0.130000 -4.276700 3.485300 -11.512700 8.867600 -6.540000 -17.547501 -4.727400 -6.126600 0.994000 -6.838300 -4.668400 -5.057700 0.000000 0.000000 16.193800 -0.661800 6.431000 -1.100900 -0.000000 0.000000 0.000000 -0.000000 -0.000000 0.000000 -7.732700 8.076600 4.018400 9.668200 2.380300 -6.915300 -0.000000 -0.000000 -3.443500 7.835700 -1.932600 4.878500 0.000000 -0.000000 -0.000000 -0.000000 -0.000000 0.000000 -4.672300 -3.257200 0.080300 5.564200 0.000000 0.000000 -3.617800 -0.558400 3.511300 5.751400 0.000000 0.000000 -6.264700 -3.834000 8.916500 10.270900 0.000000 0.000000 -9.643100 0.282000 1.351800 -1.320800 0.000000 -0.000000 
-2.727900 -46.119801 24.880199 -3.526600 -1.392500 172.759201 3.130700 -1.523600 0.039600 1.403100 -2.419800 -0.086300 3.900300 3.346900 6.433900 -1.662900 2.809200 0.118200 -4.268100 3.534600 -11.540400 8.848900 -6.543700 -17.565500 -4.712100 -6.181600 1.001700 -6.835400 -4.648200 -5.030900 0.000000 0.000000 16.213600 -0.654700 6.458400 -1.097100 -0.000000 0.000000 0.000000 -0.000000 -0.000000 0.000000 -7.767600 8.150400 4.052100 9.510100 2.365400 -6.934000 -0.000000 -0.000000 -3.419300 7.748900 -2.058700 4.889100 0.000000 0.000000 0.000000 -0.000000 -0.000000 0.000000 -4.651300 -3.368800 -0.062100 5.221200 0.000000 0.000000 -3.296600 -0.476900 3.180700 5.505600 0.000000 0.000000 -6.242500 -3.884600 8.947800 10.232000 0.000000 0.000000 -9.654200 0.309900 1.367300 -1.323600 0.000000 -0.000000 
